<svg xmlns="http://www.w3.org/2000/svg" width="900" height="360" viewBox="0 0 900 360" fill="none">
  <path d="M85 236C110 179 165 139 229 139H550C586 139 621 153 647 180L719 250H854C881 250 903 272 903 299C903 326 881 348 854 348H734C734 314 706 286 672 286C638 286 610 314 610 348H289C289 314 261 286 227 286C193 286 165 314 165 348H85C50 348 22 320 22 285V284C22 258 42 236 68 235L85 236Z" fill="#12141B" fill-opacity="0.78"/>
  <circle cx="227" cy="348" r="62" fill="#2D3140"/>
  <circle cx="227" cy="348" r="32" fill="#8B93A9"/>
  <circle cx="672" cy="348" r="62" fill="#2D3140"/>
  <circle cx="672" cy="348" r="32" fill="#8B93A9"/>
</svg>
