<svg xmlns="http://www.w3.org/2000/svg" width="64" height="64" viewBox="0 0 64 64" fill="none">
  <circle cx="32" cy="32" r="30" fill="#25D366"/>
  <path d="M20 31C20 24.4 25.4 19 32 19C38.6 19 44 24.4 44 31C44 37.6 38.6 43 32 43H26L20 45L22.2 39.8C20.8 37.3 20 34.3 20 31Z" fill="white"/>
  <path d="M28.2 27.4C28.7 26.9 29.4 27.1 29.7 27.7L30.8 29.7C31 30 30.9 30.4 30.6 30.7L30.1 31.2C29.9 31.4 29.9 31.8 30 32C30.5 32.8 31.2 33.5 32 34C32.2 34.1 32.6 34.1 32.8 33.9L33.3 33.4C33.6 33.1 34 33 34.3 33.2L36.3 34.3C36.9 34.6 37.1 35.3 36.6 35.8L35.8 36.6C34.9 37.5 33.5 37.7 32.4 37.2C30.4 36.3 28.7 34.6 27.8 32.6C27.3 31.5 27.5 30.1 28.4 29.2L29.2 28.4" fill="#25D366"/>
</svg>
