<svg xmlns="http://www.w3.org/2000/svg" width="1400" height="500" viewBox="0 0 1400 500" fill="none">
  <path d="M117 337C153 255 227 201 312 201H854C901 201 946 220 979 255L1074 356H1277C1313 356 1342 385 1342 421C1342 457 1313 486 1277 486H1118C1118 441 1082 405 1037 405C993 405 956 441 956 486H482C482 441 446 405 401 405C357 405 320 441 320 486H117C70 486 31 447 31 400V399C31 363 58 334 93 332L117 337Z" fill="#101217" fill-opacity="0.75"/>
  <circle cx="401" cy="486" r="81" fill="#2B2F3B"/>
  <circle cx="401" cy="486" r="42" fill="#878EA1"/>
  <circle cx="1037" cy="486" r="81" fill="#2B2F3B"/>
  <circle cx="1037" cy="486" r="42" fill="#878EA1"/>
</svg>
