<svg width="59" height="40" viewBox="0 0 59 40" fill="none" xmlns="http://www.w3.org/2000/svg">
<g clip-path="url(#clip0_2030_11120)">
<path fill-rule="evenodd" clip-rule="evenodd" d="M45.6263 30.1289V25.9067C45.6263 24.5289 46.7768 23.4422 48.2273 23.4422C49.5771 23.4422 50.8214 24.5267 50.8214 25.9067V30.1289C50.8214 31.5067 49.5771 32.5911 48.2273 32.5911C46.7768 32.5911 45.6263 31.5089 45.6263 30.1289ZM45.6263 13.5867V10.3133C45.6263 8.93333 46.7768 7.84889 48.2273 7.84889C49.5771 7.84889 50.8214 8.93333 50.8214 10.3133V13.5867C50.8214 14.9667 49.5771 16.0511 48.2273 16.0511C46.7768 16.0511 45.6263 14.9667 45.6263 13.5867ZM37.8372 25.9067V30.1289C37.8372 35.6489 42.4113 40 48.2273 40C54.0434 40 58.6245 35.6489 58.6245 30.1289V25.9067C58.6245 23.5422 57.6802 21.3733 56.2297 19.6978C57.6802 18.1222 58.6245 15.9511 58.6245 13.5867V10.3133C58.6245 4.89333 53.945 0.457779 48.2273 0.457779C42.5097 0.457779 37.8372 4.89333 37.8372 10.3133V13.5867C37.8372 15.9511 38.6667 18.1222 40.1242 19.6978C38.6667 21.3756 37.8372 23.5422 37.8372 25.9067ZM12.9889 30.1289C12.9889 31.5067 11.8454 32.5911 10.3949 32.5911C8.94435 32.5911 7.7938 31.5089 7.7938 30.1289V16.1956H0V30.1289C0 35.6489 4.67253 40 10.3949 40C12.8881 40 15.1681 39.1956 16.942 37.8156C18.5987 39.1956 20.9936 40 23.3814 40C29.2045 40 33.7786 35.6489 33.7786 30.1289V16.1956H25.9824V30.1289C25.9824 31.5067 24.8389 32.5911 23.3814 32.5911C21.9239 32.5911 20.7874 31.5089 20.7874 30.1289V16.1956H12.9912V30.1289H12.9889Z" fill="#D42E5B"/>
<path d="M23.7681 14.1422L18.7839 9.58444C18.9011 9.32222 18.9667 9.03556 18.9667 8.73556C18.9667 7.75333 18.2754 6.92 17.331 6.65111V0H16.0633V6.63778C15.0909 6.89111 14.3738 7.73556 14.3738 8.73556C14.3738 9.05111 14.4464 9.35111 14.5753 9.62222L9.61926 14.1489L10.5003 15.0156L15.3931 10.5467C15.7587 10.78 16.1992 10.9156 16.6726 10.9156C17.1459 10.9156 17.6122 10.7689 17.9848 10.5222L22.9104 15.02L23.7728 14.1444L23.7681 14.1422Z" fill="#D42E5B"/>
</g>
<defs>
<clipPath id="clip0_2030_11120">
<rect width="59" height="40" fill="white"/>
</clipPath>
</defs>
</svg>
