<svg width="137" height="55" viewBox="0 0 137 55" fill="none" xmlns="http://www.w3.org/2000/svg">
<g clip-path="url(#clip0_2001_182)">
<path fill-rule="evenodd" clip-rule="evenodd" d="M59.1325 41.4272V35.6217C59.1325 33.7272 60.6237 32.2331 62.5035 32.2331C64.2528 32.2331 65.8654 33.7242 65.8654 35.6217V41.4272C65.8654 43.3217 64.2528 44.8128 62.5035 44.8128C60.6237 44.8128 59.1325 43.3247 59.1325 41.4272ZM59.1325 18.6817V14.1808C59.1325 12.2833 60.6237 10.7922 62.5035 10.7922C64.2528 10.7922 65.8654 12.2833 65.8654 14.1808V18.6817C65.8654 20.5792 64.2528 22.0703 62.5035 22.0703C60.6237 22.0703 59.1325 20.5792 59.1325 18.6817ZM49.0377 35.6217V41.4272C49.0377 49.0172 54.9658 55 62.5035 55C70.0413 55 75.9785 49.0172 75.9785 41.4272V35.6217C75.9785 32.3706 74.7546 29.3883 72.8747 27.0844C74.7546 24.9181 75.9785 21.9328 75.9785 18.6817V14.1808C75.9785 6.72833 69.9137 0.629444 62.5035 0.629444C55.0934 0.629444 49.0377 6.72833 49.0377 14.1808V18.6817C49.0377 21.9328 50.1128 24.9181 52.0018 27.0844C50.1128 29.3914 49.0377 32.3706 49.0377 35.6217ZM16.8338 41.4272C16.8338 43.3217 15.3518 44.8128 13.4719 44.8128C11.5921 44.8128 10.1009 43.3247 10.1009 41.4272V22.2689H0V41.4272C0 49.0172 6.05569 55 13.4719 55C16.7032 55 19.6582 53.8939 21.9572 51.9964C24.1043 53.8939 27.2081 55 30.3027 55C37.8496 55 43.7777 49.0172 43.7777 41.4272V22.2689H33.6737V41.4272C33.6737 43.3217 32.1917 44.8128 30.3027 44.8128C28.4137 44.8128 26.9408 43.3247 26.9408 41.4272V22.2689H16.8369V41.4272H16.8338Z" fill="#D42E5B"/>
<path d="M30.8038 19.4456L24.3442 13.1786C24.496 12.8181 24.5811 12.4239 24.5811 12.0114C24.5811 10.6608 23.6852 9.515 22.4613 9.14528V0H20.8183V9.12694C19.558 9.47528 18.6287 10.6364 18.6287 12.0114C18.6287 12.4453 18.7228 12.8578 18.8898 13.2306L12.4667 19.4547L13.6086 20.6464L19.9497 14.5017C20.4235 14.8225 20.9944 15.0089 21.6079 15.0089C22.2214 15.0089 22.8257 14.8072 23.3086 14.4681L29.6923 20.6525L30.8099 19.4486L30.8038 19.4456Z" fill="#D42E5B"/>
<path fill-rule="evenodd" clip-rule="evenodd" d="M89.7936 29.3456C89.7936 29.6939 89.7328 30.0025 89.5962 30.2775C89.4747 30.5494 89.2925 30.7817 89.0647 30.965C88.8218 31.1514 88.5484 31.295 88.2113 31.3897C87.8925 31.4844 87.525 31.5333 87.1454 31.5333C86.9024 31.5333 86.6746 31.5089 86.459 31.4753C86.2312 31.4386 86.0338 31.3928 85.8668 31.3317C85.6998 31.2736 85.5479 31.2125 85.4265 31.1544C85.305 31.0872 85.229 31.0353 85.1683 30.9803C85.1076 30.9314 85.0772 30.8611 85.0468 30.7725C85.0316 30.6839 85.0013 30.5586 85.0013 30.4028C85.0013 30.3081 85.0013 30.2286 85.0316 30.1583C85.0468 30.1003 85.0468 30.0453 85.062 30.0025C85.0772 29.9628 85.0924 29.9322 85.1228 29.9139C85.1531 29.8956 85.1835 29.8894 85.2291 29.8894C85.2746 29.8894 85.3505 29.9261 85.4568 29.9903C85.5783 30.0606 85.6998 30.1339 85.8668 30.2103C86.0187 30.2958 86.2009 30.3661 86.4135 30.4364C86.626 30.5006 86.8842 30.5372 87.1606 30.5372C87.3731 30.5372 87.5705 30.5128 87.7376 30.4669C87.9046 30.4272 88.0565 30.36 88.1779 30.2714C88.2994 30.1828 88.3905 30.0667 88.4664 29.9383C88.5272 29.8039 88.5727 29.6389 88.5727 29.4556C88.5727 29.2722 88.5272 29.1042 88.4209 28.9697C88.3298 28.8383 88.1931 28.7222 88.0413 28.6214C87.8742 28.5206 87.692 28.4289 87.4946 28.3494C87.2972 28.27 87.0846 28.1875 86.872 28.105C86.6595 28.0164 86.4621 27.9186 86.2495 27.8117C86.0521 27.7017 85.8698 27.5703 85.718 27.4175C85.551 27.2556 85.4295 27.0692 85.3232 26.8553C85.2321 26.6383 85.1865 26.3817 85.1865 26.0761C85.1865 25.8042 85.2321 25.5567 85.3384 25.3092C85.4295 25.0647 85.5965 24.8478 85.7939 24.6644C86.0065 24.4872 86.2495 24.3344 86.5714 24.2275C86.8751 24.1144 87.2426 24.0533 87.6374 24.0533C87.8196 24.0533 88.0018 24.0717 88.184 24.1022C88.3662 24.1297 88.5333 24.1694 88.6699 24.2153C88.8218 24.2642 88.9432 24.3131 89.0495 24.365C89.1406 24.4139 89.2166 24.4597 89.2773 24.5025C89.3229 24.5422 89.3684 24.5789 89.3836 24.6094C89.3988 24.6369 89.414 24.6767 89.414 24.7103C89.4292 24.7469 89.4292 24.7958 89.4292 24.8478C89.4595 24.9058 89.4595 24.9731 89.4595 25.0525C89.4595 25.1411 89.4595 25.2144 89.4292 25.2725C89.4292 25.3397 89.414 25.3917 89.3988 25.4283C89.3836 25.4681 89.3684 25.4986 89.3381 25.5169C89.3077 25.5353 89.2773 25.5414 89.2621 25.5414C89.2166 25.5414 89.1406 25.5169 89.0495 25.4619C88.9736 25.4069 88.8673 25.3489 88.7307 25.2847C88.594 25.2267 88.4421 25.1656 88.2599 25.1075C88.0777 25.0525 87.8651 25.0219 87.6222 25.0219C87.4248 25.0219 87.2425 25.0464 87.0755 25.0922C86.9085 25.1411 86.7718 25.2114 86.6807 25.2969C86.5744 25.3856 86.4985 25.4925 86.4529 25.6147C86.3922 25.7339 86.377 25.8653 86.377 26.0089C86.377 26.2014 86.4226 26.3664 86.5137 26.4978C86.62 26.6353 86.7566 26.7483 86.9085 26.8522C87.0755 26.9531 87.2577 27.0447 87.4551 27.1242C87.6677 27.2036 87.8651 27.2861 88.0777 27.3717C88.2903 27.4603 88.5029 27.5581 88.7155 27.665C88.9129 27.7658 89.1103 27.8911 89.2621 28.0469C89.4292 28.1967 89.5506 28.38 89.6417 28.5908C89.748 28.7986 89.7936 29.0583 89.7936 29.3456Z" fill="#D42E5B"/>
<path fill-rule="evenodd" clip-rule="evenodd" d="M97.386 31.2003C97.386 31.24 97.3708 31.2706 97.3556 31.3011C97.3405 31.3286 97.3101 31.35 97.2645 31.3714C97.219 31.3897 97.1582 31.4081 97.0671 31.4203C96.9912 31.4264 96.9001 31.4325 96.7786 31.4325C96.6571 31.4325 96.5508 31.4325 96.4597 31.4203C96.3838 31.4081 96.3231 31.3928 96.2775 31.3714C96.232 31.3469 96.2016 31.3286 96.1864 31.3011C96.1712 31.2706 96.156 31.2431 96.156 31.2003V27.2158C96.156 26.8278 96.1257 26.5161 96.0649 26.2778C96.0042 26.0425 95.9131 25.8408 95.8068 25.6667C95.6853 25.4925 95.5335 25.3642 95.3512 25.2725C95.169 25.1839 94.9564 25.1381 94.7135 25.1381C94.4098 25.1381 94.1061 25.2511 93.7842 25.4711C93.4805 25.6942 93.1616 26.015 92.8093 26.4458V31.2003C92.8093 31.24 92.7941 31.2706 92.7789 31.3011C92.7638 31.3286 92.7182 31.35 92.6878 31.3714C92.6423 31.3897 92.5815 31.4081 92.4904 31.4203C92.4145 31.4264 92.3082 31.4325 92.1867 31.4325C92.0653 31.4325 91.9741 31.4325 91.883 31.4203C91.8071 31.4081 91.7464 31.3928 91.7008 31.3714C91.6553 31.3469 91.6097 31.3286 91.5945 31.3011C91.5794 31.2706 91.5793 31.2431 91.5793 31.2003V21.1078C91.5793 21.065 91.5794 21.0283 91.5945 20.9978C91.6097 20.9703 91.6553 20.9397 91.7008 20.9214C91.7464 20.9031 91.8071 20.8847 91.883 20.8786C91.9741 20.8694 92.0653 20.8603 92.1867 20.8603C92.3082 20.8603 92.4145 20.8664 92.4904 20.8786C92.5815 20.8847 92.6423 20.9031 92.6878 20.9214C92.7182 20.9397 92.7638 20.9703 92.7789 20.9978C92.8093 21.0283 92.8093 21.065 92.8093 21.1078V25.1778C93.1586 24.7958 93.526 24.5147 93.8905 24.3344C94.2397 24.1481 94.6072 24.0533 94.9716 24.0533C95.4272 24.0533 95.8098 24.1297 96.1135 24.2856C96.4172 24.4414 96.6754 24.6431 96.8606 24.8997C97.058 25.1564 97.1795 25.4619 97.2706 25.8042C97.3617 26.1525 97.3921 26.5711 97.3921 27.0508V31.1942L97.386 31.2003Z" fill="#D42E5B"/>
<path fill-rule="evenodd" clip-rule="evenodd" d="M100.885 31.2003C100.885 31.24 100.869 31.2706 100.854 31.3011C100.839 31.3286 100.809 31.35 100.763 31.3714C100.718 31.3897 100.657 31.4081 100.581 31.4203C100.49 31.4264 100.383 31.4325 100.262 31.4325C100.156 31.4325 100.049 31.4325 99.9735 31.4203C99.8824 31.4081 99.8216 31.3928 99.7761 31.3714C99.7305 31.3469 99.7001 31.3286 99.685 31.3011C99.6546 31.2706 99.6546 31.2431 99.6546 31.2003V24.3956C99.6546 24.3589 99.6698 24.3283 99.685 24.3008C99.7001 24.2703 99.7305 24.2458 99.7761 24.2306C99.8216 24.2061 99.8824 24.1878 99.9735 24.1817C100.049 24.1694 100.156 24.1633 100.262 24.1633C100.399 24.1633 100.49 24.1694 100.581 24.1817C100.657 24.1908 100.718 24.2061 100.763 24.2306C100.809 24.2489 100.839 24.2703 100.854 24.3008C100.885 24.3283 100.885 24.3589 100.885 24.3956V31.2003Z" fill="#D42E5B"/>
<path fill-rule="evenodd" clip-rule="evenodd" d="M101.021 22.0978C101.021 22.3911 100.976 22.5897 100.869 22.6936C100.763 22.8006 100.55 22.8494 100.262 22.8494C99.9735 22.8494 99.7761 22.8006 99.6698 22.7028C99.5483 22.5928 99.5027 22.4003 99.5027 22.1161C99.5027 21.8319 99.5635 21.6272 99.6698 21.5203C99.7761 21.4133 99.9735 21.3583 100.262 21.3583C100.566 21.3583 100.763 21.4133 100.869 21.5142C100.976 21.615 101.021 21.8167 101.021 22.1008V22.0978Z" fill="#D42E5B"/>
<path fill-rule="evenodd" clip-rule="evenodd" d="M109.251 26.29C109.145 25.8469 108.993 25.465 108.781 25.1319C108.553 24.7989 108.28 24.5392 107.927 24.3497C107.578 24.1511 107.165 24.0564 106.679 24.0564C106.451 24.0564 106.239 24.0839 106.026 24.1389C105.829 24.1878 105.631 24.2703 105.434 24.3742C105.237 24.475 105.054 24.6064 104.857 24.7622C104.675 24.9181 104.477 25.1014 104.265 25.3183V24.3956C104.265 24.3558 104.265 24.3161 104.25 24.2886C104.234 24.2642 104.204 24.2428 104.158 24.2183C104.113 24.2 104.052 24.1878 103.991 24.1786C103.915 24.1694 103.84 24.1664 103.718 24.1664C103.627 24.1664 103.536 24.1756 103.475 24.1786C103.399 24.1878 103.338 24.2031 103.293 24.2183C103.247 24.2428 103.217 24.2642 103.217 24.2886C103.187 24.3161 103.187 24.3558 103.187 24.3956V33.8983C103.187 33.9411 103.187 33.9778 103.217 34.0083C103.232 34.0389 103.263 34.0633 103.308 34.0786C103.354 34.1031 103.414 34.1214 103.505 34.1275C103.581 34.1397 103.672 34.1458 103.794 34.1458C103.915 34.1458 104.022 34.1336 104.098 34.1275C104.189 34.1214 104.25 34.1031 104.295 34.0786C104.341 34.0603 104.371 34.0358 104.386 34.0083C104.401 33.9778 104.417 33.9411 104.417 33.8983V30.4975C104.599 30.6747 104.766 30.8306 104.933 30.9619C105.085 31.0903 105.252 31.2033 105.419 31.2858C105.571 31.3714 105.738 31.4356 105.92 31.4722C106.087 31.515 106.269 31.5394 106.466 31.5394C106.937 31.5394 107.365 31.4417 107.73 31.2675C108.094 31.0903 108.401 30.8306 108.644 30.5006C108.887 30.1736 109.084 29.7733 109.206 29.2936C109.342 28.8231 109.388 28.2914 109.388 27.6925H109.403C109.403 27.2006 109.342 26.7361 109.251 26.29ZM107.988 28.7803C107.927 29.0981 107.821 29.3792 107.684 29.6297C107.548 29.8803 107.365 30.085 107.153 30.2347C106.925 30.3814 106.652 30.4608 106.345 30.4608C106.011 30.4608 105.692 30.3539 105.385 30.1308C105.082 29.9108 104.748 29.5869 104.41 29.1683V26.4642C104.608 26.2136 104.79 26.0089 104.972 25.8378C105.139 25.6697 105.306 25.5322 105.473 25.4283C105.625 25.3275 105.792 25.2511 105.944 25.2022C106.096 25.1533 106.248 25.1319 106.415 25.1319C106.734 25.1319 107.007 25.2083 107.223 25.3581C107.435 25.5078 107.602 25.7125 107.739 25.9631C107.86 26.2136 107.952 26.4978 108.012 26.8278C108.058 27.1486 108.088 27.4847 108.088 27.83C108.088 28.1569 108.058 28.4656 107.982 28.7772L107.988 28.7803Z" fill="#D42E5B"/>
<path fill-rule="evenodd" clip-rule="evenodd" d="M117.33 26.29C117.223 25.8469 117.071 25.465 116.844 25.1319C116.631 24.7989 116.358 24.5392 116.006 24.3497C115.656 24.1511 115.243 24.0564 114.742 24.0564C114.53 24.0564 114.317 24.0839 114.104 24.1389C113.907 24.1878 113.71 24.2703 113.512 24.3742C113.315 24.475 113.133 24.6064 112.95 24.7622C112.753 24.9181 112.556 25.1014 112.358 25.3183V24.3956C112.358 24.3558 112.343 24.3161 112.328 24.2886C112.313 24.2642 112.282 24.2428 112.237 24.2183C112.191 24.2 112.13 24.1878 112.054 24.1786C111.994 24.1694 111.903 24.1664 111.796 24.1664C111.705 24.1664 111.614 24.1756 111.553 24.1786C111.477 24.1878 111.417 24.2031 111.371 24.2183C111.326 24.2428 111.295 24.2642 111.28 24.2886C111.28 24.3161 111.265 24.3558 111.265 24.3956V33.8983C111.265 33.9411 111.28 33.9778 111.295 34.0083C111.295 34.0389 111.341 34.0633 111.386 34.0786C111.432 34.1031 111.493 34.1214 111.584 34.1275C111.66 34.1397 111.766 34.1458 111.872 34.1458C112.009 34.1458 112.1 34.1336 112.191 34.1275C112.267 34.1214 112.328 34.1031 112.373 34.0786C112.419 34.0603 112.449 34.0358 112.464 34.0083C112.495 33.9778 112.495 33.9411 112.495 33.8983V30.4975C112.677 30.6747 112.844 30.8306 113.011 30.9619C113.178 31.0903 113.33 31.2033 113.497 31.2858C113.664 31.3714 113.831 31.4356 113.998 31.4722C114.165 31.515 114.347 31.5394 114.545 31.5394C115.015 31.5394 115.428 31.4417 115.808 31.2675C116.173 31.0903 116.479 30.8306 116.722 30.5006C116.98 30.1736 117.163 29.7733 117.284 29.2936C117.406 28.8231 117.481 28.2914 117.481 27.6925C117.481 27.2006 117.421 26.7361 117.33 26.29ZM116.081 28.7803C116.006 29.0981 115.914 29.3792 115.778 29.6297C115.626 29.8803 115.459 30.085 115.231 30.2347C115.003 30.3814 114.745 30.4608 114.423 30.4608C114.101 30.4608 113.77 30.3539 113.464 30.1308C113.16 29.9108 112.841 29.5869 112.489 29.1683V26.4642C112.686 26.2136 112.868 26.0089 113.051 25.8378C113.218 25.6697 113.385 25.5322 113.552 25.4283C113.719 25.3275 113.871 25.2511 114.022 25.2022C114.174 25.1533 114.341 25.1319 114.508 25.1319C114.812 25.1319 115.085 25.2083 115.301 25.3581C115.514 25.5078 115.696 25.7125 115.817 25.9631C115.939 26.2136 116.03 26.4978 116.091 26.8278C116.136 27.1486 116.166 27.4847 116.166 27.83C116.166 28.1569 116.136 28.4656 116.075 28.7772L116.081 28.7803Z" fill="#D42E5B"/>
<path fill-rule="evenodd" clip-rule="evenodd" d="M120.722 31.2003C120.722 31.2369 120.707 31.2706 120.692 31.3011C120.661 31.3286 120.631 31.3561 120.585 31.3714C120.54 31.3958 120.479 31.4081 120.403 31.4203C120.327 31.4264 120.221 31.4325 120.084 31.4325C119.978 31.4325 119.872 31.4264 119.796 31.4203C119.72 31.4081 119.644 31.3928 119.598 31.3714C119.553 31.3469 119.522 31.3225 119.507 31.3011C119.492 31.2706 119.477 31.2431 119.477 31.2003V24.3956C119.477 24.3589 119.492 24.3283 119.507 24.3008C119.522 24.2703 119.553 24.2458 119.598 24.2306C119.644 24.2061 119.72 24.1878 119.796 24.1817C119.872 24.1694 119.978 24.1633 120.084 24.1633C120.221 24.1633 120.327 24.1694 120.403 24.1817C120.479 24.1908 120.54 24.2061 120.585 24.2306C120.631 24.2489 120.661 24.2703 120.692 24.3008C120.707 24.3283 120.722 24.3589 120.722 24.3956V31.2003Z" fill="#D42E5B"/>
<path fill-rule="evenodd" clip-rule="evenodd" d="M120.859 22.0978C120.859 22.3911 120.798 22.5897 120.692 22.6936C120.585 22.8006 120.373 22.8494 120.084 22.8494C119.796 22.8494 119.598 22.8006 119.492 22.7028C119.386 22.5928 119.325 22.4003 119.325 22.1161C119.325 21.8319 119.386 21.6272 119.492 21.5203C119.598 21.4133 119.811 21.3583 120.099 21.3583C120.388 21.3583 120.585 21.4133 120.692 21.5142C120.798 21.615 120.859 21.8167 120.859 22.1008V22.0978Z" fill="#D42E5B"/>
<path fill-rule="evenodd" clip-rule="evenodd" d="M128.831 31.2003C128.831 31.2369 128.815 31.2706 128.785 31.3011C128.77 31.3286 128.74 31.35 128.694 31.3714C128.664 31.3897 128.588 31.4081 128.512 31.4203C128.436 31.4264 128.33 31.4325 128.208 31.4325C128.087 31.4325 127.98 31.4264 127.904 31.4203C127.828 31.4081 127.768 31.3958 127.722 31.3714C127.677 31.3531 127.646 31.3286 127.616 31.3011C127.601 31.2706 127.585 31.2431 127.585 31.2003V27.2158C127.585 26.8278 127.555 26.5161 127.494 26.2778C127.449 26.0425 127.358 25.8408 127.236 25.6667C127.115 25.4925 126.978 25.3642 126.796 25.2725C126.598 25.1839 126.401 25.1381 126.158 25.1381C125.839 25.1381 125.536 25.2511 125.229 25.4711C124.91 25.6942 124.591 26.015 124.254 26.4458V31.2003C124.254 31.2369 124.224 31.2706 124.208 31.3011C124.193 31.3286 124.163 31.3561 124.117 31.3714C124.072 31.3958 124.011 31.4081 123.935 31.4203C123.844 31.4264 123.753 31.4325 123.616 31.4325C123.51 31.4325 123.404 31.4264 123.328 31.4203C123.237 31.4081 123.176 31.3928 123.13 31.3714C123.085 31.3469 123.054 31.3225 123.039 31.3011C123.024 31.2706 123.009 31.2431 123.009 31.2003V24.3956C123.009 24.3589 123.009 24.3253 123.039 24.2947C123.039 24.2703 123.07 24.2397 123.115 24.2244C123.161 24.2 123.221 24.1878 123.297 24.1756C123.373 24.1694 123.449 24.1633 123.571 24.1633C123.677 24.1633 123.768 24.1694 123.844 24.1756C123.92 24.1817 123.981 24.2 124.011 24.2244C124.057 24.2428 124.087 24.2733 124.102 24.2947C124.117 24.3222 124.132 24.3619 124.132 24.3956V25.3C124.512 24.8692 124.895 24.5606 125.274 24.3619C125.639 24.1664 126.021 24.0594 126.416 24.0594C126.857 24.0594 127.239 24.1419 127.558 24.2917C127.847 24.4475 128.105 24.6492 128.305 24.9058C128.487 25.1625 128.624 25.4681 128.7 25.8103C128.791 26.1586 128.822 26.5681 128.822 27.0569V31.2064H128.837L128.831 31.2003Z" fill="#D42E5B"/>
<path fill-rule="evenodd" clip-rule="evenodd" d="M136.939 25.0861C136.985 25.0097 137 24.8844 137 24.7042V24.695C137 24.53 136.985 24.3956 136.939 24.3131C136.894 24.2367 136.833 24.1939 136.757 24.1939H134.701C134.549 24.1939 134.382 24.1236 134.2 24.0992C134.033 24.0747 133.835 24.0625 133.638 24.0625C133.258 24.0625 132.891 24.1206 132.572 24.2367C132.253 24.3497 131.98 24.5086 131.749 24.7194C131.521 24.9272 131.339 25.1931 131.202 25.4986C131.081 25.8103 131.005 26.1556 131.005 26.5436C131.005 26.8736 131.051 27.1608 131.142 27.3931C131.233 27.6253 131.354 27.8361 131.506 28.0194C131.324 28.2119 131.172 28.4319 131.051 28.6733C130.914 28.9117 130.868 29.1867 130.868 29.4983C130.868 29.7214 130.914 29.9292 131.035 30.1217C131.157 30.305 131.339 30.47 131.582 30.5953C131.43 30.7206 131.278 30.8458 131.157 30.9772C131.035 31.1056 130.929 31.2431 130.853 31.3867C130.762 31.5211 130.701 31.6739 130.671 31.8297C130.625 31.9856 130.61 32.1475 130.61 32.3156C130.61 32.5783 130.656 32.8197 130.777 33.0458C130.884 33.2719 131.066 33.4644 131.309 33.6264C131.552 33.7822 131.855 33.9136 132.238 34.0053C132.633 34.1 133.076 34.1489 133.638 34.1489C134.2 34.1489 134.704 34.0878 135.114 33.9625C135.524 33.8433 135.876 33.6722 136.134 33.4553C136.408 33.2414 136.605 32.9969 136.727 32.7158C136.863 32.4347 136.924 32.1231 136.924 31.8236C136.924 31.5242 136.878 31.2614 136.757 31.0414C136.651 30.8153 136.484 30.6289 136.271 30.4731C136.074 30.3172 135.831 30.1981 135.554 30.1156C135.266 30.0361 134.962 29.9903 134.625 29.9781L132.861 29.9078C132.587 29.8956 132.375 29.8283 132.208 29.7153C132.056 29.6022 131.965 29.4525 131.965 29.2783C131.965 29.1225 131.995 28.9911 132.056 28.8719C132.117 28.7589 132.192 28.6581 132.268 28.5694C132.405 28.6764 132.602 28.7742 132.845 28.8444C133.088 28.9147 133.347 28.9514 133.638 28.9514C134.018 28.9514 134.385 28.8964 134.704 28.7833C135.023 28.6764 135.296 28.5144 135.542 28.3067C135.77 28.0989 135.937 27.8392 136.074 27.5397C136.195 27.2403 136.256 26.8858 136.256 26.4978C136.256 26.2594 136.226 26.0333 136.15 25.8103C136.074 25.5964 135.952 25.3947 135.785 25.2144H136.76C136.821 25.2144 136.897 25.1747 136.942 25.0953L136.939 25.0861ZM131.977 31.5853C132.038 31.4814 132.129 31.3683 132.22 31.2614C132.326 31.1453 132.463 31.02 132.615 30.9008L134.364 30.9589C134.774 30.9681 135.096 31.0475 135.339 31.2094C135.567 31.3653 135.688 31.5914 135.688 31.8847C135.688 32.0589 135.658 32.2178 135.582 32.3736C135.521 32.5294 135.4 32.6731 135.248 32.7922C135.096 32.9144 134.898 33.0092 134.64 33.0794C134.397 33.1589 134.078 33.1864 133.696 33.1864C133.119 33.1864 132.645 33.1039 132.311 32.9358C131.992 32.7708 131.825 32.5203 131.825 32.1964C131.825 32.0894 131.825 31.9886 131.855 31.8847C131.871 31.7839 131.916 31.6831 131.977 31.5822V31.5853ZM135.065 26.4978C135.065 26.6964 135.035 26.8797 134.99 27.0661C134.929 27.2433 134.838 27.4083 134.716 27.5458C134.595 27.6833 134.443 27.7903 134.276 27.8697C134.094 27.9492 133.881 27.9889 133.638 27.9889C133.183 27.9889 132.815 27.8575 132.572 27.6008C132.314 27.3442 132.192 26.9928 132.192 26.5436C132.192 26.3481 132.223 26.1494 132.268 25.9692C132.329 25.7797 132.42 25.6208 132.542 25.4772C132.663 25.3336 132.8 25.2267 132.982 25.1442C133.164 25.0678 133.362 25.025 133.605 25.025C134.075 25.025 134.443 25.1564 134.686 25.4131C134.944 25.6758 135.065 26.0364 135.065 26.4978Z" fill="#D42E5B"/>
</g>
<defs>
<clipPath id="clip0_2001_182">
<rect width="137" height="55" fill="white"/>
</clipPath>
</defs>
</svg>
